<svg width="15" height="11" viewBox="0 0 15 11" fill="none" xmlns="http://www.w3.org/2000/svg">
<path d="M5 5.4C5 5.2 5 5.2 5 5.4L0.238095 3C0.238095 3 0.238095 3 0 3V8.8C0 8.8 0 8.8 0 9L5 5.4Z" fill="white"/>
<path d="M14.5652 0H0.434783C0.434783 0 0.217391 0 0.217391 0.206897C0 0.206897 0 0.413793 0 0.413793V2.06897L7.3913 6L14.7826 2.06897C14.7826 2.06897 15 2.06897 15 1.86207V0.413793C15 0.206897 15 0.206897 14.7826 0C14.7826 0 14.7826 0 14.5652 0Z" fill="white"/>
<path d="M14.7895 3L11 5.48387L15 10C15 10 15 10 15 9.77419L14.7895 3C15 3 15 3 14.7895 3Z" fill="white"/>
<path d="M9.12121 6L7.42424 6.8C7.21212 7 7 7 6.78788 6.8L5.51515 6.2H5.30303L0 10.8C0 10.8 0 10.8 0 11C0.212121 11 0.212121 11 0.212121 11H13.7879C13.7879 11 13.7879 11 14 11V10.8L9.12121 6Z" fill="white"/>
</svg>
