<svg width="16" height="15" viewBox="0 0 16 15" fill="none" xmlns="http://www.w3.org/2000/svg">
<path d="M15.9178 11.7051C15.7084 11.1236 15.0801 10.736 14.4517 10.5422L12.3573 9.96074C11.9384 9.76692 11.1006 9.96074 10.6817 10.3484L9.84392 11.1236C7.12114 10.3484 4.81724 8.4102 4.1889 5.89057L5.02668 5.1153C5.23613 4.72766 5.44557 3.95239 5.44557 3.37094L4.81724 1.43276C4.60779 1.04512 3.97946 0.463671 3.56057 0.269853L3.35112 0.0760356C2.72279 -0.117782 1.88501 0.0760356 1.46612 0.463671L0.41889 1.62658C0.209445 1.8204 0 2.40185 0 2.40185C0 5.69675 1.46612 8.99165 3.97946 11.3175C6.4928 13.6433 10.0534 15 13.6139 15C13.6139 15 14.2423 14.8062 14.4517 14.6124L15.4989 13.6433C15.9178 13.2556 16.1273 12.4804 15.9178 11.8989V11.7051Z" fill="white"/>
</svg>
