<svg width="16" height="15" fill="none" xmlns="http://www.w3.org/2000/svg"><path d="M15.918 11.705c-.21-.581-.838-.969-1.466-1.163l-2.095-.581c-.419-.194-1.256 0-1.675.387l-.838.776C7.12 10.348 4.817 8.41 4.189 5.89l.838-.776c.21-.387.419-1.163.419-1.744l-.629-1.938C4.607 1.045 3.98.463 3.561.27L3.35.076c-.628-.194-1.466 0-1.885.388L.42 1.627C.209 1.82 0 2.402 0 2.402c0 3.295 1.466 6.59 3.98 8.916C6.492 13.643 10.052 15 13.613 15c0 0 .628-.194.838-.388l1.047-.969c.419-.387.628-1.163.419-1.744v-.194Z" fill="#fff"/></svg>