<svg width="120" height="25" viewBox="0 0 120 25" fill="none" xmlns="http://www.w3.org/2000/svg">
<path d="M71.5974 6.11079C71.1808 6.87467 70.3474 7.36079 69.4447 7.36079C67.9863 7.36079 66.8058 6.24967 66.8058 4.79134C66.8058 3.33301 67.9169 2.2219 69.4447 2.2219C70.3474 2.2219 71.1808 2.70801 71.528 3.40245L71.5974 3.54134L72.2919 3.12467L72.2224 2.98579C71.6669 2.01356 70.6252 1.45801 69.4447 1.45801C67.5002 1.45801 66.1113 2.91634 66.1113 4.79134C66.1113 6.66634 67.5697 8.12468 69.4447 8.12468C70.6252 8.12468 71.6669 7.49967 72.2224 6.52745L72.2919 6.38856L71.5974 6.11079Z" fill="white"/>
<path d="M74.861 7.91634H75.6248V2.2219H77.5693V1.45801H72.9165V2.2219H74.861V7.91634Z" fill="white"/>
<path d="M79.4446 5.62467H80.9029C82.0834 5.62467 82.9862 4.7219 82.9862 3.54134C82.9862 2.36079 82.0834 1.45801 80.9029 1.45801H78.6807V7.91634H79.4446V5.62467ZM79.4446 2.2219H80.9029C81.6668 2.2219 82.2223 2.77745 82.2223 3.54134C82.2223 4.30523 81.6668 4.86079 80.9029 4.86079H79.4446V2.2219Z" fill="white"/>
<path d="M90.5558 4.72201C90.5558 2.84701 89.0975 1.38867 87.2225 1.38867C85.3475 1.38867 83.8892 2.84701 83.8892 4.72201C83.8892 6.59701 85.3475 8.05534 87.2225 8.05534C89.0975 8.05534 90.5558 6.59701 90.5558 4.72201ZM87.2225 7.29145C85.7642 7.29145 84.653 6.18034 84.653 4.72201C84.653 3.26367 85.7642 2.15256 87.2225 2.15256C88.6808 2.15256 89.7919 3.26367 89.7919 4.72201C89.8614 6.18034 88.6808 7.29145 87.2225 7.29145Z" fill="white"/>
<path d="M96.736 7.91634V1.45801H96.111L92.7082 6.45801V1.45801H91.9443V7.91634H92.5693L95.9721 2.91634V7.91634H96.736Z" fill="white"/>
<path d="M103.542 7.91634H104.306V1.45801H103.472L101.389 4.99967L99.2362 1.45801H98.4028V7.91634H99.1667V2.8469L101.25 6.24967H101.528L103.542 2.8469V7.91634Z" fill="white"/>
<path d="M71.1112 11.3193H67.0139V14.9999C67.0139 15.9721 66.8056 16.5971 66.4584 17.0832H65.9028V19.0277H66.6667V17.8471H71.0417V19.0277H71.8056V17.0832H71.1806L71.1112 11.3193ZM70.3473 12.0138V17.0138H67.3612C67.6389 16.5277 67.7778 15.8332 67.7778 14.9304V12.0138H70.3473Z" fill="white"/>
<path d="M73.8196 14.9999C73.8196 16.8749 73.1945 17.0832 72.7084 17.0832C72.639 17.0832 72.5696 17.0832 72.5696 17.0832H72.4307V17.7777H72.5696C72.639 17.7777 72.7084 17.7777 72.7779 17.7777C73.9584 17.7777 74.514 16.8749 74.514 14.9999V12.0138H77.2223V17.7777H77.9862V11.3193H73.8196V14.9999Z" fill="white"/>
<path d="M79.3751 13.2639C79.3751 14.1667 80.0001 14.9306 80.8334 15.1389L79.0278 17.7083H79.9306L81.6667 15.1389H83.1251V17.7083H83.8889V11.25H81.3195C80.2778 11.3194 79.3751 12.1528 79.3751 13.2639ZM81.3195 12.0139H83.1251V14.5139H81.3195C80.6251 14.5139 80.1389 13.9583 80.1389 13.2639C80.1389 12.5694 80.6945 12.0139 81.3195 12.0139Z" fill="white"/>
<path d="M95.2086 11.3193H94.3058L91.8753 13.9582V11.3193H91.1114V13.9582L88.6808 11.3193H87.7086L90.5558 14.4443L87.6392 17.7777H88.6114L91.1114 14.9304V17.7777H91.8753V14.9304L94.3753 17.7777H95.3475L92.3614 14.4443L95.2086 11.3193Z" fill="white"/>
<path d="M105.903 14.3751C106.389 14.0279 106.667 13.5418 106.667 12.9862C106.667 11.9446 105.833 11.1807 104.653 11.1807C103.333 11.1807 102.778 11.8751 102.569 12.5001L102.5 12.639L103.125 12.9862L103.194 12.8473C103.403 12.2223 103.958 11.9446 104.653 11.9446C105.416 11.9446 105.903 12.3612 105.903 13.0557C105.903 13.6807 105.417 14.1668 104.583 14.1668H103.958V14.8612H104.791C105.555 14.8612 106.111 15.2779 106.111 16.0418C106.111 16.7362 105.555 17.2223 104.653 17.2223C103.611 17.2223 103.194 16.6668 103.055 16.1807L102.986 15.9723L102.292 16.3196L102.361 16.4584C102.569 17.014 103.055 17.9168 104.653 17.9168C105.972 17.9168 106.875 17.1529 106.875 16.0418C106.805 15.2779 106.458 14.7223 105.903 14.3751Z" fill="white"/>
<path d="M112.292 14.0971H109.028V11.3193H108.264V17.7777H109.028V14.7916H112.292V17.7777H113.056V11.3193H112.292V14.0971Z" fill="white"/>
<path d="M100.903 17.639V11.1807H100.278L96.8752 16.1807V11.1807H96.1113V17.639H96.7363L100.139 12.639V17.639H100.903Z" fill="white"/>
<path d="M119.653 17.639V11.1807H119.028L115.625 16.1807V11.1807H114.861V17.639H115.486L118.889 12.639V17.639H119.653Z" fill="white"/>
<path d="M38.1945 14.5874V1.3916H24.3098V5.28049C24.3098 6.11382 24.3098 8.47494 23.8932 10.3499C23.6848 11.1833 22.9904 13.4055 22.157 14.586H20.6251L18.4751 18.7499H40.2779V14.5881L38.1945 14.5874ZM27.9862 10.6972C28.4029 8.96105 28.4723 7.22493 28.4723 5.54507H34.0279V14.586H26.8057C27.3612 13.1972 27.7084 12.086 27.9862 10.6972Z" fill="white"/>
<path d="M12.5 1.38867V14.5831H4.15972V1.38867H0V18.7498H16.6646V1.38867H12.5Z" fill="white"/>
<path d="M50.5554 15.1388C47.8471 15.1388 45.6248 12.9166 45.6248 10.2082C45.6248 7.49989 47.8471 5.27767 50.5554 5.27767C52.0137 5.27767 53.2637 5.90267 54.1665 6.87489L56.0415 3.26378C54.5137 2.08322 52.6387 1.31934 50.5554 1.31934C45.6943 1.31934 41.6665 5.27767 41.6665 10.2082C41.6665 15.1388 45.6248 19.0971 50.5554 19.0971C53.4721 19.0971 56.1109 17.6388 57.7082 15.4166L54.5137 13.1249C53.6804 14.3054 52.2221 15.1388 50.5554 15.1388Z" fill="white"/>
<path d="M14.1272 25.0002H6.80566L12.2918 14.5835H19.6133L14.1272 25.0002Z" fill="#9D9D9D"/>
<path d="M59.6679 10.4167H52.3457L57.8318 0H65.154L59.6679 10.4167Z" fill="#D9D9D9"/>
</svg>
