<svg width="46" height="42" viewBox="0 0 46 42" fill="none" xmlns="http://www.w3.org/2000/svg">
<path d="M0 0L45.9594 20.5109L0 41.14V0Z" fill="#191B1E"/>
<path d="M14.7412 32.4167L10.5125 34.307L7.09851 24.9734V35.843L2.12646 38.073V3.01514L7.09851 5.24271V15.049L9.99067 6.53741L14.623 8.60254L17.3626 26.0244L19.7502 10.8892L30.4056 15.652V17.8525L24.2496 15.1031L23.9936 16.7301L30.4056 19.6026V25.3869L22.0319 29.1602L22.7949 24.3211L26.9744 22.4283L22.0319 20.2155L20.5132 29.8273L14.8741 32.3551L11.4503 14.6355L9.77407 19.4352L14.7412 32.4167Z" fill="white"/>
<path d="M32.1807 16.4473L41.2805 20.5061L32.1807 24.5798V16.4473Z" fill="#9D9D9D"/>
</svg>
