<svg width="73" height="23" viewBox="0 0 73 23" fill="none" xmlns="http://www.w3.org/2000/svg">
<path d="M5.9685 0L0 7.09154L0.00467934 7.09622H0.00233967V22.9872H17.0211L22.7626 15.8934V0H5.9685Z" fill="#9E9E9E"/>
<path d="M3.26145 19.5783H3.10938V17.3767C3.15652 17.3766 3.20354 17.3719 3.24976 17.3626H3.27549C3.97739 17.1614 4.59039 16.3566 4.77288 15.6921C5.04194 14.7399 5.14723 12.9056 5.15892 11.5439C5.15892 10.9332 5.15893 10.0395 5.14723 9.71191H12.2973V19.3981L9.87336 19.4192V11.9697H7.41437C7.41437 11.9697 7.34184 14.0567 7.19444 15.154C6.92304 17.1474 6.49254 17.9359 5.86083 18.5582C5.37223 19.0346 4.75636 19.3596 4.08736 19.4941C3.81531 19.548 3.53879 19.5762 3.26145 19.5783Z" fill="white"/>
<path d="M56.2059 0L50.2397 7.09154L50.2421 7.09622H50.2397V22.9872H67.2585L73 15.8934V0H56.2059Z" fill="#9E9E9E"/>
<path d="M54.334 19.6133V9.67676H58.5758C61.112 9.67676 62.6866 11.1063 62.6866 13.2377V13.3173C62.6866 15.5025 61.1284 17.2035 58.5033 17.2035H56.91V19.6133H54.334ZM56.9076 14.9691H58.391C59.4859 14.9691 60.1949 14.3233 60.1949 13.4904C60.1949 12.5546 59.5304 11.9299 58.3746 11.9299H56.9076V14.9691Z" fill="white"/>
<path d="M31.0871 0L25.1187 7.09154L25.1233 7.09622H25.1187V22.9872H42.1397L47.8813 15.8934V0H31.0871Z" fill="#9E9E9E"/>
<path d="M33.5974 19.8147C30.6752 19.8147 28.4712 17.6037 28.4712 14.6675V14.637C28.4712 11.6891 30.7243 9.46638 33.7144 9.46638C34.513 9.45074 35.3052 9.61048 36.0353 9.93431C36.6547 10.223 37.2034 10.6439 37.6427 11.1673L35.895 12.9174L35.7476 12.7326C35.4927 12.4361 35.1762 12.1987 34.8202 12.0371C34.4642 11.8754 34.0773 11.7934 33.6863 11.7967C32.231 11.7967 31.1337 13.0063 31.1337 14.6043V14.6324C31.1337 16.2561 32.231 17.4797 33.6863 17.4797C34.2783 17.4952 34.8578 17.3078 35.3288 16.9486C35.5237 16.795 35.7052 16.6251 35.8716 16.4409L35.8856 16.4246L35.9067 16.3918L37.5959 18.0787C37.1892 18.5572 36.6953 18.9541 36.1406 19.2485C35.3521 19.6427 34.4787 19.8372 33.5974 19.8147Z" fill="white"/>
</svg>
