<svg width="181" height="33" viewBox="0 0 181 33" fill="none" xmlns="http://www.w3.org/2000/svg">
<path d="M37 24C37.1222 24.875 37 26.2045 37 27C37 28.1667 37.2445 28.7538 37 30H26L24 31H38C38.2689 29.6212 38 28.2992 38 27C38 26.125 38.1222 24.9811 38 24H37Z" fill="white"/>
<path d="M36.4329 15.0467C38.2289 17.3042 39.5887 19.9631 40.3071 22.4966L24.3484 30.2223L23.7583 30.9748H24.1688L25.3747 30.3979L37.2796 24.6287L37.844 24.3527L40.9999 22.8226L40.9485 22.5969C40.2301 19.8879 38.742 17.0283 36.8177 14.5952L36.4329 15.0467Z" fill="white"/>
<path d="M16.8563 30.9749L15.6504 30.3979H3.92516C3.66859 29.219 3.54031 28.0652 3.54031 26.9615C3.54031 26.209 3.59162 25.4565 3.71991 24.6287L3.15545 24.3528C3.00151 25.2809 2.9502 26.1337 2.9502 26.9615C2.9502 28.1906 3.10414 29.4698 3.38637 30.7491L3.43768 30.9749H17.2668H16.8563Z" fill="white"/>
<path d="M3.72028 24.6038L15.6252 30.373L16.831 30.9499H17.2416L16.6514 30.1974L0.718398 22.4967C1.41114 19.9633 2.79662 17.3295 4.59262 15.0469L4.20776 14.5703C2.25782 17.0034 0.769712 19.863 0.0513141 22.572L0 22.7977L3.15582 24.3278L3.72028 24.6038Z" fill="white"/>
<path d="M24.3486 30.2224L36.4331 15.0468L36.8179 14.5702L39.8198 10.8077L39.6402 10.6321C36.6383 7.64713 32.9694 5.36452 28.9412 4.01001L28.8129 4.58693C32.6358 5.89128 36.1509 8.04847 39.0244 10.8829L23.4763 30.4231H22.5783L22.4243 31H23.1427H23.7585L24.3486 30.2224Z" fill="white"/>
<path d="M19.7561 30.9748H18.5246L18.3963 30.3979H17.5496L2.00142 10.8578C4.87502 8.04841 8.39003 5.89122 12.2129 4.58687L12.059 3.98486C8.05649 5.36446 4.38753 7.64707 1.38565 10.632L1.20605 10.8076L4.20793 14.5701L4.59279 15.0467L16.6773 30.2223L17.2674 30.9748H17.4213H18.0371H19.7561Z" fill="white"/>
<path d="M22.3988 30.9749L22.5527 30.398L28.8131 4.58696L28.9413 4.01003L29.4032 2.05351L29.1209 1.97826C26.2217 1.32609 23.2968 1 20.4232 1C17.5496 1 14.753 1.32609 11.8794 2.00334L11.5972 2.0786L12.059 4.03512L12.1873 4.61204L18.3706 30.4231L18.4989 31H19.7305H20.064H20.6798H20.885H21.6034H21.6291L22.3988 30.9749ZM12.3156 2.47993C15.0352 1.87793 17.6779 1.57692 20.4232 1.57692C23.1428 1.57692 25.9138 1.87793 28.6848 2.47993L21.937 30.398H19.0121L12.3156 2.47993Z" fill="white"/>
<path d="M57.747 19.8141C60.7743 19.8141 62.2752 17.5452 62.2752 17.5452H62.6059V20.6809C62.6059 20.6809 60.876 22.7459 57.3145 22.7459C52.6591 22.7459 49.0977 19.1768 49.0977 14.5115C49.0977 9.84618 52.6591 6.2771 57.3145 6.2771C61.2067 6.2771 63.0383 8.44404 63.0383 8.44404L61.8427 10.9424C61.8427 10.9424 60.7743 9.20884 57.747 9.20884C54.618 9.20884 52.4556 11.3758 52.4556 14.5115C52.4556 17.6472 54.618 19.8141 57.747 19.8141Z" fill="white"/>
<path d="M79.2431 22.4143H76.0124V9.54014H69.1947V22.4143H65.9639V6.6084H79.2431V22.4143Z" fill="white"/>
<path d="M83.1353 6.6084H93.6162V9.54014H86.366V13.0072H91.9881V15.939H86.366V19.5081H93.6162V22.4398H83.1353V6.6084Z" fill="white"/>
<path d="M100.638 13.8486L107.023 6.58301H110.686L104.097 14.1546L111.22 22.3889H107.226L100.638 14.6899V22.3889H97.4067V6.58301H100.638V13.8486Z" fill="white"/>
<path d="M124.296 6.6084V9.54014H119.641V22.4143H116.41V9.54014H111.754V6.6084H124.296Z" fill="white"/>
<path d="M130.681 22.4143H127.45V6.6084H132.411C136.405 6.6084 138.669 8.87731 138.669 12.1405C138.669 15.3781 136.405 17.6725 132.411 17.6725H130.681V22.4143ZM130.681 14.7153H132.411C134.242 14.7153 135.336 13.7466 135.336 12.115C135.336 10.4834 134.268 9.51465 132.411 9.51465H130.681V14.7153Z" fill="white"/>
<path d="M145.919 17.9785L139.966 6.6084H143.426L147.496 14.6133H147.573L151.312 6.6084H154.772L148.946 18.6158C147.471 21.6495 146.453 22.7202 144.189 22.7202C143.502 22.7202 142.892 22.5163 142.892 22.5163L142.459 19.4826C142.459 19.4826 142.994 19.814 143.757 19.814C144.723 19.814 145.232 19.3806 145.588 18.6158L145.919 17.9785Z" fill="white"/>
<path d="M168.382 6.6084H171.613L173.877 22.4143H170.443L169.171 13.0072H169.069L165.813 22.4143H163.116L159.86 13.0072H159.758L158.486 22.4143H155.026L157.29 6.6084H160.521L164.439 17.8765H164.541L168.382 6.6084Z" fill="white"/>
<path d="M53.0153 31.0568H52.5065V28.7114L50.8784 31.0568H50.3696V27.8701H50.8784V30.2155L52.5065 27.8701H52.9899V31.0568H53.0153Z" fill="white"/>
<path d="M56.3735 31.0568H55.8647V29.6801H54.3384V31.0568H53.8296V27.8701H54.3384V29.1958H55.8647V27.8701H56.3735V31.0568Z" fill="white"/>
<path d="M58.7391 27.8701H59.2479V29.3487L60.5199 27.8701H61.1304L59.8076 29.3997L61.2322 31.0568H60.5708L59.2479 29.5017V31.0568H58.7391V29.5017L57.4163 31.0568H56.7549L58.1795 29.3997L56.8566 27.8701H57.4672L58.7391 29.3487V27.8701Z" fill="white"/>
<path d="M64.2594 31.0568H63.7507V28.7114L62.1226 31.0568H61.6138V27.8701H62.1226V30.2155L63.7507 27.8701H64.234V31.0568H64.2594Z" fill="white"/>
<path d="M67.643 31.0568H67.1343V29.6801H65.6079V31.0568H65.0991V27.8701H65.6079V29.1958H67.1343V27.8701H67.643V31.0568Z" fill="white"/>
<path d="M71.1027 31.0568H70.5939V28.7114L68.9658 31.0568H68.457V27.8701H68.9658V30.2155L70.5939 27.8701H71.0773V31.0568H71.1027Z" fill="white"/>
<path d="M72.4507 31.0568H71.9419V27.8701H72.8831C73.6209 27.8701 74.0788 28.329 74.0788 28.9663C74.0788 29.6037 73.6209 30.0626 72.8831 30.0626H72.4507V31.0568ZM72.4507 29.5782H72.8831C73.2647 29.5782 73.5446 29.3487 73.5446 28.9663C73.5446 28.6094 73.2902 28.3545 72.8831 28.3545H72.4507V29.5782Z" fill="white"/>
<path d="M77.3605 31.0568H76.8517V28.7114L75.2236 31.0568H74.7148V27.8701H75.2236V30.2155L76.8517 27.8701H77.3351V31.0568H77.3605Z" fill="white"/>
<path d="M80.7441 31.0568H80.2353V29.6801H78.709V31.0568H78.2002V27.8701H78.709V29.1958H80.2353V27.8701H80.7441V31.0568Z" fill="white"/>
<path d="M83.3897 27.8701V28.3545H82.0923V31.0313H81.5835V27.8701H83.3897Z" fill="white"/>
<path d="M85.2724 32H84.8145V27.5896H85.2724V32Z" fill="white"/>
<path d="M89.8003 31.0568H89.2915V28.38H87.7651V31.0568H87.2563V27.8701H89.8003V31.0568Z" fill="white"/>
<path d="M91.123 31.0568H90.6143V27.8701H91.5555C92.2932 27.8701 92.7512 28.329 92.7512 28.9663C92.7512 29.6037 92.2932 30.0626 91.5555 30.0626H91.123V31.0568ZM91.123 29.5782H91.5555C91.9371 29.5782 92.2169 29.3487 92.2169 28.9663C92.2169 28.6094 91.9625 28.3545 91.5555 28.3545H91.123V29.5782Z" fill="white"/>
<path d="M94.8884 31.1078C93.9472 31.1078 93.2349 30.394 93.2349 29.4508C93.2349 28.5075 93.9472 27.7937 94.8884 27.7937C95.8297 27.7937 96.542 28.5075 96.542 29.4508C96.542 30.394 95.8297 31.1078 94.8884 31.1078ZM94.8884 30.6235C95.5498 30.6235 96.0077 30.1391 96.0077 29.4508C96.0077 28.7625 95.5244 28.2781 94.8884 28.2781C94.2524 28.2781 93.7691 28.7625 93.7691 29.4508C93.7436 30.1646 94.227 30.6235 94.8884 30.6235Z" fill="white"/>
<path d="M97.1777 27.8701H99.1874V28.3545H97.6865V29.1958H98.8567V29.6801H97.6865V30.5724H99.1874V31.0568H97.1777V27.8701Z" fill="white"/>
<path d="M100.409 29.3742L101.782 27.8701H102.418L100.994 29.3997L102.52 31.0568H101.859L100.409 29.4762V31.0568H99.8999V27.8701H100.409V29.3742Z" fill="white"/>
<path d="M104.962 27.8701V28.3545H104.021V31.0313H103.512V28.3545H102.571V27.8701H104.962Z" fill="white"/>
<path d="M108.168 31.0568H107.659V28.7114L106.031 31.0568H105.522V27.8701H106.031V30.2155L107.659 27.8701H108.142V31.0568H108.168Z" fill="white"/>
<path d="M109.516 31.0568H109.007V27.8701H109.948C110.686 27.8701 111.144 28.329 111.144 28.9663C111.144 29.6037 110.686 30.0626 109.948 30.0626H109.516V31.0568ZM109.516 29.5782H109.948C110.33 29.5782 110.61 29.3487 110.61 28.9663C110.61 28.6094 110.355 28.3545 109.948 28.3545H109.516V29.5782Z" fill="white"/>
<path d="M113.256 31.1078C112.314 31.1078 111.602 30.394 111.602 29.4508C111.602 28.5075 112.314 27.7937 113.256 27.7937C114.197 27.7937 114.909 28.5075 114.909 29.4508C114.909 30.394 114.222 31.1078 113.256 31.1078ZM113.256 30.6235C113.917 30.6235 114.375 30.1391 114.375 29.4508C114.375 28.7625 113.892 28.2781 113.256 28.2781C112.62 28.2781 112.136 28.7625 112.136 29.4508C112.136 30.1646 112.62 30.6235 113.256 30.6235Z" fill="white"/>
<path d="M117.555 28.7369C117.555 29.2723 117.122 29.3742 117.122 29.3742V29.3997C117.122 29.3997 117.707 29.5272 117.707 30.1645C117.707 30.6744 117.351 31.0568 116.613 31.0568H115.545V27.8701H116.486C117.224 27.8701 117.555 28.227 117.555 28.7369ZM116.079 28.3545V29.1703H116.512C116.868 29.1703 117.02 29.0173 117.02 28.7624C117.02 28.5075 116.842 28.3545 116.512 28.3545H116.079ZM116.079 30.5724H116.613C116.97 30.5724 117.173 30.394 117.173 30.1135C117.173 29.8331 116.97 29.6547 116.613 29.6547H116.079V30.5724Z" fill="white"/>
<path d="M118.877 30.2919L118.521 31.0567H117.961L119.411 27.8955H119.869L121.319 31.0567H120.76L120.404 30.2919H118.877ZM119.64 28.5838L119.081 29.8075H120.175L119.64 28.5838Z" fill="white"/>
<path d="M124.27 31.0568H123.762V29.6801H122.235V31.0568H121.727V27.8701H122.235V29.1958H123.762V27.8701H124.27V31.0568Z" fill="white"/>
<path d="M127.73 31.0568H127.221V28.7114L125.593 31.0568H125.084V27.8701H125.593V30.2155L127.221 27.8701H127.705V31.0568H127.73Z" fill="white"/>
<path d="M128.57 27.8701H130.58V28.3545H129.079V29.1958H130.249V29.6801H129.079V30.5724H130.58V31.0568H128.57V27.8701Z" fill="white"/>
<path d="M132.869 32H132.411V27.5896H132.869V32Z" fill="white"/>
<path d="M136.354 30.6233C136.99 30.6233 137.296 30.1135 137.296 30.1135H137.372V30.6488C137.372 30.6488 137.016 31.0822 136.303 31.0822C135.362 31.0822 134.65 30.3684 134.65 29.4251C134.65 28.4819 135.362 27.7681 136.303 27.7681C137.067 27.7681 137.448 28.2269 137.448 28.2269L137.245 28.6348C137.245 28.6348 136.939 28.2524 136.354 28.2524C135.667 28.2524 135.184 28.7368 135.184 29.4251C135.184 30.1644 135.667 30.6233 136.354 30.6233Z" fill="white"/>
<path d="M140.094 27.8701V28.3545H139.153V31.0313H138.644V28.3545H137.703V27.8701H140.094Z" fill="white"/>
<path d="M141.187 31.0568H140.679V27.8701H141.62C142.358 27.8701 142.816 28.329 142.816 28.9663C142.816 29.6037 142.358 30.0626 141.62 30.0626H141.187V31.0568ZM141.187 29.5782H141.62C142.002 29.5782 142.281 29.3487 142.281 28.9663C142.281 28.6094 142.027 28.3545 141.62 28.3545H141.187V29.5782Z" fill="white"/>
<path d="M144.927 31.1078C143.986 31.1078 143.273 30.394 143.273 29.4508C143.273 28.5075 143.986 27.7937 144.927 27.7937C145.868 27.7937 146.581 28.5075 146.581 29.4508C146.581 30.394 145.894 31.1078 144.927 31.1078ZM144.927 30.6235C145.588 30.6235 146.046 30.1391 146.046 29.4508C146.046 28.7625 145.563 28.2781 144.927 28.2781C144.291 28.2781 143.808 28.7625 143.808 29.4508C143.808 30.1646 144.291 30.6235 144.927 30.6235Z" fill="white"/>
<path d="M149.862 31.0568H149.354V28.7114L147.726 31.0568H147.217V27.8701H147.726V30.2155L149.354 27.8701H149.837V31.0568H149.862Z" fill="white"/>
<path d="M152.864 27.8701V28.3545H151.923V31.0313H151.414V28.3545H150.473V27.8701H152.864Z" fill="white"/>
<path d="M153.424 27.8701H155.434V28.3545H153.933V29.1958H155.103V29.6801H153.933V30.5724H155.434V31.0568H153.424V27.8701Z" fill="white"/>
<path d="M156.807 29.7566C156.731 30.6744 156.375 31.0313 155.815 31.1333L155.713 30.6489C156.019 30.5724 156.222 30.4195 156.273 29.7566L156.451 27.8701H158.486V31.0313H157.977V28.3545H156.934L156.807 29.7566Z" fill="white"/>
<path d="M159.834 28.8899H160.267C161.03 28.8899 161.463 29.3232 161.463 29.9861C161.463 30.6489 161.03 31.0823 160.267 31.0823H159.326V27.8701H159.834V28.8899ZM159.834 30.5724H160.267C160.649 30.5724 160.928 30.343 160.928 29.9606C160.928 29.6037 160.674 29.3487 160.267 29.3487H159.834V30.5724Z" fill="white"/>
<path d="M163.599 30.6233C164.235 30.6233 164.541 30.1135 164.541 30.1135H164.617V30.6488C164.617 30.6488 164.261 31.0822 163.549 31.0822C162.607 31.0822 161.895 30.3684 161.895 29.4251C161.895 28.4819 162.607 27.7681 163.549 27.7681C164.312 27.7681 164.693 28.2269 164.693 28.2269L164.49 28.6348C164.49 28.6348 164.185 28.2524 163.599 28.2524C162.913 28.2524 162.429 28.7368 162.429 29.4251C162.429 30.1644 162.913 30.6233 163.599 30.6233Z" fill="white"/>
<path d="M167.339 27.8701V28.3545H166.398V31.0313H165.889V28.3545H164.948V27.8701H167.339Z" fill="white"/>
<path d="M169.909 28.7369C169.909 29.2723 169.476 29.3742 169.476 29.3742V29.3997C169.476 29.3997 170.061 29.5272 170.061 30.1645C170.061 30.6744 169.705 31.0568 168.967 31.0568H167.899V27.8701H168.84C169.578 27.8701 169.909 28.227 169.909 28.7369ZM168.433 28.3545V29.1703H168.866C169.222 29.1703 169.374 29.0173 169.374 28.7624C169.374 28.5075 169.196 28.3545 168.866 28.3545H168.433ZM168.433 30.5724H168.967C169.324 30.5724 169.527 30.394 169.527 30.1135C169.527 29.8331 169.324 29.6547 168.967 29.6547H168.433V30.5724Z" fill="white"/>
<path d="M172.198 31.1078C171.257 31.1078 170.544 30.394 170.544 29.4508C170.544 28.5075 171.257 27.7937 172.198 27.7937C173.139 27.7937 173.852 28.5075 173.852 29.4508C173.852 30.394 173.139 31.1078 172.198 31.1078ZM172.198 30.6235C172.859 30.6235 173.317 30.1391 173.317 29.4508C173.317 28.7625 172.834 28.2781 172.198 28.2781C171.562 28.2781 171.079 28.7625 171.079 29.4508C171.053 30.1646 171.537 30.6235 172.198 30.6235Z" fill="white"/>
<path d="M177.54 5.25757C177.54 5.25757 177.591 5.35954 177.591 5.48701C177.591 5.63997 177.54 5.74194 177.54 5.74194H176.752V8.39326C176.752 8.39326 176.65 8.44425 176.472 8.44425C176.268 8.44425 176.192 8.39326 176.192 8.39326V5.74194H175.403C175.403 5.74194 175.353 5.63997 175.353 5.5125C175.353 5.35954 175.403 5.25757 175.403 5.25757H177.54Z" fill="white"/>
<path d="M180.644 5.25743C180.848 5.25743 181 5.30841 181 5.30841V8.39312C181 8.39312 180.899 8.4441 180.72 8.4441C180.542 8.4441 180.441 8.39312 180.441 8.39312V7.42437C180.441 6.93999 180.415 6.32815 180.466 5.97124H180.441C180.364 6.25167 180.135 6.71055 179.957 7.09295L179.652 7.73029C179.652 7.73029 179.576 7.75578 179.499 7.75578C179.398 7.75578 179.347 7.73029 179.347 7.73029C179.245 7.52634 179.143 7.32239 179.041 7.09295C178.863 6.71055 178.609 6.22618 178.533 5.94575H178.507C178.584 6.25167 178.558 6.83802 178.558 7.2969V8.36762C178.558 8.36762 178.456 8.41861 178.304 8.41861C178.151 8.41861 178.049 8.36762 178.049 8.36762V5.28292C178.049 5.28292 178.177 5.23193 178.38 5.23193C178.558 5.23193 178.711 5.28292 178.711 5.28292L179.118 6.09871C179.27 6.40463 179.423 6.73605 179.499 6.96549H179.525C179.576 6.83802 179.627 6.68506 179.703 6.5066C179.906 6.09871 180.084 5.69081 180.263 5.28292C180.39 5.25743 180.542 5.25743 180.644 5.25743Z" fill="white"/>
</svg>
