<svg width="50" height="55" viewBox="0 0 50 55" fill="none" xmlns="http://www.w3.org/2000/svg">
<path fill-rule="evenodd" clip-rule="evenodd" d="M0 45.1614H12.9032V37.9033H0V45.1614Z" fill="white"/>
<path fill-rule="evenodd" clip-rule="evenodd" d="M46.7744 45.1614H50.0002V37.9033H46.7744V45.1614Z" fill="white"/>
<path fill-rule="evenodd" clip-rule="evenodd" d="M20.1611 45.1582L39.516 45.1614V37.9066L20.1611 37.9033V45.1582Z" fill="white"/>
<path fill-rule="evenodd" clip-rule="evenodd" d="M0 30.6453L16.9355 8.87109H0V30.6453Z" fill="white"/>
<path fill-rule="evenodd" clip-rule="evenodd" d="M3.22559 30.6452H12.903V17.7419L3.22559 30.6452Z" fill="white"/>
<path fill-rule="evenodd" clip-rule="evenodd" d="M20.1611 30.6719L23.5307 30.6765L23.5286 37.9034H25.7153V30.6811L42.7418 8.87109H20.1611V30.6719Z" fill="white"/>
<path fill-rule="evenodd" clip-rule="evenodd" d="M4.69511 4.52228L4.52181 5.1837C4.29079 5.29653 4.0426 5.37982 3.7774 5.43366C3.51213 5.4875 3.2404 5.51442 2.96206 5.51442C2.1007 5.51442 1.397 5.28115 0.850806 4.81454C0.283575 4.33255 0 3.70189 0 2.92256C0 1.96373 0.307274 1.2254 0.92174 0.707568C1.48365 0.235882 2.22153 0 3.13537 0C3.40846 0 3.6868 0.0320713 3.97038 0.0961369C4.25395 0.160203 4.51133 0.253802 4.74243 0.376857L4.56122 1.16903H4.45095C4.30393 0.963907 4.11087 0.794706 3.87195 0.661422C3.63295 0.528138 3.39009 0.461457 3.14327 0.461457C2.53404 0.461457 2.06402 0.712721 1.73313 1.21517C1.44947 1.64586 1.30769 2.17908 1.30769 2.81489C1.30769 3.49169 1.47051 4.03391 1.79616 4.44153C2.12174 4.84915 2.58386 5.05296 3.1826 5.05296C3.42942 5.05296 3.68019 5.00043 3.93491 4.89529C4.18963 4.79016 4.40888 4.65049 4.59274 4.47614L4.69511 4.52228ZM11.7962 5.40674C11.7279 5.40674 11.6136 5.40159 11.4534 5.39136C11.2933 5.38113 11.2106 5.37598 11.2053 5.37598C11.1423 5.37598 11.0451 5.38113 10.9139 5.39136C10.7825 5.40159 10.6828 5.40674 10.6145 5.40674V0.684495C10.3361 0.684495 10.0933 0.693493 9.8858 0.711413C9.67831 0.729333 9.43287 0.756252 9.14921 0.792168C9.15977 0.720412 9.16896 0.657577 9.17678 0.60374C9.18468 0.549903 9.18863 0.50245 9.18863 0.461457C9.18863 0.389701 9.18331 0.326866 9.17283 0.273029C9.16235 0.219192 9.15445 0.174277 9.14921 0.138437H13.2062C13.1905 0.246111 13.1747 0.353784 13.159 0.461457C13.159 0.512756 13.1642 0.567823 13.1747 0.626813C13.1852 0.685803 13.1958 0.74087 13.2062 0.792168C12.8229 0.746023 12.5918 0.720412 12.513 0.715259C12.2767 0.694724 12.0377 0.684495 11.7962 0.684495V5.40674ZM19.8031 4.01214C19.6508 3.6942 19.4197 3.28273 19.1098 2.78028C19.0521 2.68799 18.7553 2.22015 18.2197 1.37799C17.8626 0.819087 17.6078 0.405083 17.4555 0.138437C17.5343 0.138437 17.6524 0.146128 17.81 0.16151C17.9676 0.176892 18.0857 0.184583 18.1645 0.184583C18.2433 0.184583 18.3615 0.176892 18.519 0.16151C18.6765 0.146128 18.7947 0.138437 18.8735 0.138437C18.9417 0.276874 19.0836 0.528138 19.2989 0.892151C19.3409 0.958831 19.5484 1.30746 19.9213 1.93812C20.1733 2.35859 20.3283 2.62515 20.3861 2.73798C20.5121 2.54824 20.7248 2.14062 21.0241 1.51512C21.1817 1.18695 21.3944 0.728026 21.6622 0.138437L22.0483 0.16151L22.4264 0.138437C22.2741 0.405083 21.9931 0.925453 21.5835 1.6997C21.2053 2.4175 20.8508 3.10968 20.5199 3.77626C20.1261 4.57097 19.8714 5.11449 19.7558 5.40674C19.7243 5.40674 19.6718 5.40159 19.5983 5.39136C19.5247 5.38113 19.467 5.37598 19.425 5.37598L19.0862 5.40674C19.1755 5.25808 19.3225 4.97736 19.5274 4.5672C19.5904 4.43899 19.6823 4.2531 19.8031 4.01214ZM26.8883 4.82223C27.1194 4.3044 27.3452 3.78649 27.5658 3.26866C27.8284 2.66361 28.0464 2.14578 28.2197 1.71508C28.414 1.2434 28.6188 0.712721 28.8341 0.123055C28.8709 0.123055 28.926 0.128208 28.9996 0.138437C29.0731 0.148666 29.1282 0.153819 29.165 0.153819C29.207 0.153819 29.2648 0.148666 29.3383 0.138437C29.4119 0.128208 29.467 0.123055 29.5038 0.123055C29.7716 0.846005 30.0761 1.63302 30.4175 2.48418C30.7169 3.23789 31.0346 4.01722 31.3708 4.82223H31.7489C31.7384 4.89399 31.7291 4.96836 31.7213 5.04527C31.7134 5.12218 31.7069 5.1837 31.7017 5.22985C31.7017 5.28115 31.7069 5.35291 31.7174 5.4452C31.7279 5.53749 31.7384 5.60417 31.7489 5.64516H31.6307C31.5362 5.53234 31.3734 5.45927 31.1423 5.42597C30.9112 5.39267 30.6434 5.37598 30.3388 5.37598H28.0149C27.6525 5.37598 27.3623 5.39005 27.1444 5.41828C26.9264 5.4465 26.7675 5.52211 26.6678 5.64516H26.5496C26.5653 5.58363 26.5759 5.52211 26.5811 5.46058C26.5863 5.39905 26.589 5.32214 26.589 5.22985C26.589 5.14779 26.5837 5.06834 26.5732 4.99143C26.5627 4.91452 26.5548 4.85815 26.5496 4.82223H26.8883ZM30.0395 4.82223C29.8661 4.31463 29.6731 3.78395 29.4604 3.2302C29.2477 2.67645 29.039 2.12786 28.8341 1.58434C28.5978 2.15347 28.3772 2.69183 28.1724 3.19944C27.9361 3.7891 27.7313 4.33001 27.5579 4.82223C27.6629 4.82738 27.852 4.83377 28.1251 4.84146C28.3982 4.84915 28.6057 4.85299 28.7475 4.85299C28.9576 4.85299 29.1781 4.85045 29.4092 4.8453C29.6402 4.84015 29.8504 4.83246 30.0395 4.82223ZM36.3842 0.123055C36.4472 0.123055 36.5444 0.133284 36.6756 0.153819C36.8069 0.174277 36.9067 0.184583 36.975 0.184583C37.038 0.184583 37.1351 0.174277 37.2664 0.153819C37.3978 0.133284 37.4975 0.123055 37.5658 0.123055V3.73011C38.007 3.27381 38.5269 2.68161 39.1256 1.9535C39.698 1.25616 40.176 0.64604 40.5593 0.123055C40.6434 0.123055 40.7117 0.123055 40.7641 0.123055C40.8062 0.123055 40.8718 0.123055 40.9611 0.123055C41.0504 0.123055 41.1161 0.123055 41.1581 0.123055V5.40674C41.095 5.40674 40.9979 5.40159 40.8666 5.39136C40.7353 5.38113 40.6329 5.37598 40.5593 5.37598C40.5016 5.37598 40.407 5.38113 40.2757 5.39136C40.1445 5.40159 40.0446 5.40674 39.9764 5.40674V1.76892C39.5195 2.27652 39.0035 2.87896 38.4284 3.57629C37.8533 4.27363 37.3689 4.88376 36.975 5.40674C36.9382 5.40674 36.8962 5.40674 36.8489 5.40674C36.8017 5.40674 36.7675 5.40674 36.7465 5.40674C36.6835 5.40674 36.6218 5.40674 36.5614 5.40674C36.501 5.40674 36.4419 5.40674 36.3842 5.40674V0.123055ZM50 5.40674C49.937 5.40674 49.8398 5.40159 49.7085 5.39136C49.5773 5.38113 49.4774 5.37598 49.4092 5.37598C49.3462 5.37598 49.249 5.38113 49.1178 5.39136C48.9864 5.40159 48.8867 5.40674 48.8184 5.40674V2.95333H48.7632C48.6687 3.10199 48.5768 3.25074 48.4875 3.3994C48.3982 3.54807 48.3221 3.68143 48.2591 3.79933L47.3138 5.40674C47.2349 5.40674 47.1168 5.40159 46.9593 5.39136C46.8017 5.38113 46.6835 5.37598 46.6048 5.37598C46.5207 5.37598 46.3999 5.38113 46.2423 5.39136C46.0848 5.40159 45.9693 5.40674 45.8957 5.40674L46.2029 4.93759C46.4393 4.57866 46.6152 4.31209 46.7307 4.13773C47.1036 3.5686 47.3899 3.11484 47.5895 2.77643C47.2061 2.69437 46.9093 2.54055 46.6992 2.31498C46.4734 2.07402 46.3605 1.76638 46.3605 1.39206C46.3605 1.13057 46.4169 0.911378 46.5299 0.734486C46.6428 0.557594 46.8148 0.410159 47.0458 0.292256C47.1351 0.246111 47.2704 0.208963 47.4515 0.180737C47.6327 0.152512 47.8757 0.138437 48.1803 0.138437H50V5.40674ZM48.8184 0.56144H48.582C48.3037 0.56144 48.1041 0.587051 47.9833 0.638349C47.789 0.720412 47.6682 0.883152 47.621 1.12803C47.5947 1.26132 47.5815 1.38952 47.5815 1.51127C47.5815 2.24707 47.9282 2.61492 48.6214 2.61492H48.7396C48.7764 2.61492 48.8026 2.61492 48.8184 2.61492V0.56144Z" fill="white"/>
<path fill-rule="evenodd" clip-rule="evenodd" d="M2.79661 49.5443C2.71602 49.3292 2.59779 49.1612 2.44199 49.0404C2.2862 48.9198 2.09542 48.8594 1.86974 48.8594C1.56893 48.8594 1.3459 48.929 1.20089 49.068C1.0558 49.2071 0.983248 49.3947 0.983248 49.6309C0.983248 49.9144 1.19285 50.169 1.61188 50.3947C2.37484 50.8041 2.76974 51.0193 2.79661 51.0403C3.22103 51.3657 3.43329 51.7856 3.43329 52.3C3.43329 52.8039 3.23446 53.2186 2.8369 53.544C2.43934 53.8695 1.9262 54.0321 1.29757 54.0321C1.06118 54.0321 0.831478 54.0046 0.608448 53.9495C0.385498 53.8943 0.182655 53.8091 0 53.6936C0.0645043 53.4731 0.112842 53.2947 0.145094 53.1582C0.177347 53.0217 0.206864 52.8669 0.233728 52.6937H0.386865C0.44598 52.9666 0.574909 53.1792 0.77373 53.3314C0.972471 53.4837 1.21432 53.5597 1.49904 53.5597C1.76768 53.5597 1.99199 53.4889 2.17199 53.3471C2.35199 53.2054 2.44199 53.0034 2.44199 52.7409C2.44199 52.405 2.23513 52.1268 1.82148 51.9063C1.43454 51.7069 1.05041 51.5075 0.66893 51.308C0.249813 50.9983 0.0402951 50.5757 0.0402951 50.0404C0.0402951 49.5628 0.196167 49.1743 0.50775 48.8751C0.846277 48.5497 1.311 48.387 1.90199 48.387C2.17071 48.387 2.42454 48.4263 2.66366 48.5051C2.90269 48.5838 3.07328 48.6704 3.17535 48.7649C3.11631 48.9172 3.07063 49.0431 3.03838 49.1428C2.98465 49.3213 2.94436 49.4551 2.91749 49.5443H2.79661ZM10.5932 53.9298C10.5019 53.9298 10.4266 53.9272 10.3675 53.9219C10.1365 53.901 10.0102 53.8904 9.98876 53.8904C9.89739 53.8904 9.77916 53.897 9.63414 53.9101C9.48905 53.9232 9.4058 53.9298 9.38425 53.9298V49.0877C9.09953 49.0877 8.851 49.0969 8.63883 49.1152C8.42658 49.1337 8.1754 49.1612 7.88529 49.1979C7.89599 49.1245 7.9054 49.0601 7.91344 49.005C7.92156 48.9499 7.9255 48.9014 7.9255 48.8594C7.9255 48.7859 7.92019 48.7216 7.90942 48.6665C7.89872 48.6114 7.8906 48.5655 7.88529 48.5287H12.0358C12.0251 48.6022 12.0157 48.6665 12.0076 48.7216C11.9996 48.7767 11.9955 48.8227 11.9955 48.8594C11.9955 48.9381 12.0009 49.005 12.0116 49.0601C12.0223 49.1152 12.0305 49.1612 12.0358 49.1979C11.6436 49.1507 11.4072 49.1245 11.3266 49.1192C11.0848 49.0982 10.8403 49.0877 10.5932 49.0877V53.9298ZM16.9552 48.5287C17.0465 48.5287 17.1647 48.5353 17.3098 48.5484C17.4549 48.5615 17.5382 48.5681 17.5596 48.5681C17.651 48.5681 17.7262 48.5654 17.7853 48.5602C18.0163 48.5392 18.1426 48.5287 18.1642 48.5287V51.119C18.1642 51.3185 18.1654 51.5153 18.1681 51.7095C18.1708 51.9037 18.191 52.0992 18.2286 52.2961C18.2662 52.4929 18.3105 52.653 18.3616 52.7763C18.4126 52.8997 18.508 53.027 18.6477 53.1582C18.8949 53.3839 19.201 53.4967 19.5664 53.4967C19.9479 53.4967 20.2461 53.4259 20.4611 53.2842C20.676 53.1424 20.856 52.8958 21.001 52.5441C21.0655 52.3919 21.1058 52.1767 21.1219 51.8985C21.138 51.6203 21.1461 51.2922 21.1461 50.9143V48.5287L21.4684 48.5523L21.7908 48.5287V51.3316C21.7908 51.909 21.7532 52.3315 21.6779 52.5992C21.5598 53.0243 21.3126 53.3629 20.9366 53.6148C20.7323 53.7618 20.4986 53.8681 20.2354 53.9337C19.9721 53.9994 19.6981 54.0321 19.4133 54.0321C18.8546 54.0321 18.3817 53.9403 17.9949 53.7566C17.5274 53.5309 17.2239 53.1818 17.0841 52.7094C17.0412 52.5677 17.0089 52.4116 16.9875 52.2409C16.966 52.0704 16.9552 51.9037 16.9552 51.741V48.5287ZM29.9823 48.5287C30.7883 48.5287 31.4088 48.7885 31.844 49.3081C32.2254 49.7648 32.4162 50.3474 32.4162 51.056C32.4162 51.9274 32.1342 52.6228 31.5699 53.1424C31.0327 53.6411 30.3369 53.8904 29.4826 53.8904H27.226V48.5287H29.9823ZM28.4349 53.4338H29.12C29.7325 53.4338 30.1973 53.2685 30.5142 52.9377C30.8903 52.5441 31.0784 51.9142 31.0784 51.0481C31.0784 50.3343 30.9118 49.8068 30.5787 49.4656C30.2671 49.1455 29.8157 48.9853 29.2247 48.9853H28.4349V53.4338ZM37.5774 48.5287C37.6687 48.5287 37.787 48.5353 37.932 48.5484C38.0771 48.5615 38.1603 48.5681 38.1818 48.5681C38.2732 48.5681 38.3484 48.5654 38.4075 48.5602C38.6386 48.5392 38.7648 48.5287 38.7863 48.5287V53.9298C38.6949 53.9298 38.6197 53.9272 38.5606 53.9219C38.3296 53.901 38.2034 53.8904 38.1818 53.8904C38.0905 53.8904 37.9723 53.897 37.8272 53.9101C37.6822 53.9232 37.5989 53.9298 37.5774 53.9298V48.5287ZM46.8247 54.0321C45.9167 54.0321 45.1927 53.7855 44.6527 53.292C44.1127 52.7987 43.8427 52.1084 43.8427 51.2214C43.8427 50.4078 44.1194 49.7386 44.6728 49.2137C45.2531 48.6625 46.0348 48.387 47.0181 48.387C48.0604 48.387 48.8449 48.7019 49.3714 49.3318C49.7905 49.8357 50 50.455 50 51.1899C50 51.9877 49.7179 52.6543 49.1538 53.1897C48.5628 53.7514 47.7864 54.0321 46.8247 54.0321ZM45.1805 51.4497C45.1805 52.0271 45.3095 52.5074 45.5674 52.8905C45.8683 53.3367 46.3008 53.5597 46.8649 53.5597C47.4506 53.5597 47.9046 53.3052 48.2269 52.796C48.5171 52.3342 48.6621 51.7489 48.6621 51.0403C48.6621 50.4576 48.5332 49.9669 48.2754 49.568C47.9691 49.0956 47.5339 48.8594 46.9697 48.8594C46.3948 48.8594 45.9569 49.0693 45.6561 49.4892C45.339 49.9301 45.1805 50.5836 45.1805 51.4497Z" fill="white"/>
<path fill-rule="evenodd" clip-rule="evenodd" d="M29.0322 30.6452H38.7096V17.7419L29.0322 30.6452Z" fill="white"/>
<path fill-rule="evenodd" clip-rule="evenodd" d="M46.7744 30.6453H50.0002V8.87109H46.7744V30.6453Z" fill="white"/>
</svg>
